<mxfile host="app.diagrams.net" modified="2023-08-28T14:03:35.627Z" agent="Mozilla/5.0 (Windows NT 10.0; Win64; x64) AppleWebKit/537.36 (KHTML, like Gecko) Chrome/116.0.0.0 Safari/537.36 Edg/116.0.1938.54" etag="5cdoUv-xt4wV_FW1omI2" version="21.6.9" type="device">
  <diagram name="PÃ¡gina-1" id="laD7xOQqr2kZozaM-udC">
    <mxGraphModel dx="446" dy="299" grid="1" gridSize="10" guides="1" tooltips="1" connect="1" arrows="1" fold="1" page="1" pageScale="1" pageWidth="827" pageHeight="1169" math="0" shadow="0">
      <root>
        <mxCell id="0" />
        <mxCell id="1" parent="0" />
        <mxCell id="vlUzahcKjeqFbnAH2pxr-1" value="Aluno" style="swimlane;fontStyle=1;align=center;verticalAlign=top;childLayout=stackLayout;horizontal=1;startSize=26;horizontalStack=0;resizeParent=1;resizeParentMax=0;resizeLast=0;collapsible=1;marginBottom=0;whiteSpace=wrap;html=1;" vertex="1" parent="1">
          <mxGeometry x="260" y="180" width="190" height="150" as="geometry" />
        </mxCell>
        <mxCell id="vlUzahcKjeqFbnAH2pxr-2" value="+ nome : String&lt;br&gt;+ idade : int&lt;br&gt;+ turma : string&lt;br&gt;- nrFaltas: int" style="text;strokeColor=none;fillColor=none;align=left;verticalAlign=top;spacingLeft=4;spacingRight=4;overflow=hidden;rotatable=0;points=[[0,0.5],[1,0.5]];portConstraint=eastwest;whiteSpace=wrap;html=1;" vertex="1" parent="vlUzahcKjeqFbnAH2pxr-1">
          <mxGeometry y="26" width="190" height="74" as="geometry" />
        </mxCell>
        <mxCell id="vlUzahcKjeqFbnAH2pxr-3" value="" style="line;strokeWidth=1;fillColor=none;align=left;verticalAlign=middle;spacingTop=-1;spacingLeft=3;spacingRight=3;rotatable=0;labelPosition=right;points=[];portConstraint=eastwest;strokeColor=inherit;" vertex="1" parent="vlUzahcKjeqFbnAH2pxr-1">
          <mxGeometry y="100" width="190" height="8" as="geometry" />
        </mxCell>
        <mxCell id="vlUzahcKjeqFbnAH2pxr-4" value="+ Apresentar ( ) : void&lt;br&gt;+ AdicionarFaltas (nr : int) : void" style="text;strokeColor=none;fillColor=none;align=left;verticalAlign=top;spacingLeft=4;spacingRight=4;overflow=hidden;rotatable=0;points=[[0,0.5],[1,0.5]];portConstraint=eastwest;whiteSpace=wrap;html=1;" vertex="1" parent="vlUzahcKjeqFbnAH2pxr-1">
          <mxGeometry y="108" width="190" height="42" as="geometry" />
        </mxCell>
      </root>
    </mxGraphModel>
  </diagram>
</mxfile>
